<?xml version="1.0" encoding="utf-8"?>
<svg xmlns="http://www.w3.org/2000/svg" xmlns:xlink="http://www.w3.org/1999/xlink" style="margin: auto; background: rgb(255, 255, 255); display: block; shape-rendering: auto;" width="171px" height="171px" viewBox="0 0 100 100" preserveAspectRatio="xMidYMid">
<g transform="rotate(0 50 50)">
  <rect x="42.5" y="32.5" rx="6" ry="4.5" width="15" height="9" fill="#d2c2c5">
    <animate attributeName="opacity" values="1;0" keyTimes="0;1" dur="0.7246376811594202s" begin="-0.7095410628019323s" repeatCount="indefinite"></animate>
  </rect>
</g><g transform="rotate(7.5 50 50)">
  <rect x="42.5" y="32.5" rx="6" ry="4.5" width="15" height="9" fill="#d2c2c5">
    <animate attributeName="opacity" values="1;0" keyTimes="0;1" dur="0.7246376811594202s" begin="-0.6944444444444443s" repeatCount="indefinite"></animate>
  </rect>
</g><g transform="rotate(15 50 50)">
  <rect x="42.5" y="32.5" rx="6" ry="4.5" width="15" height="9" fill="#d2c2c5">
    <animate attributeName="opacity" values="1;0" keyTimes="0;1" dur="0.7246376811594202s" begin="-0.6793478260869564s" repeatCount="indefinite"></animate>
  </rect>
</g><g transform="rotate(22.5 50 50)">
  <rect x="42.5" y="32.5" rx="6" ry="4.5" width="15" height="9" fill="#d2c2c5">
    <animate attributeName="opacity" values="1;0" keyTimes="0;1" dur="0.7246376811594202s" begin="-0.6642512077294686s" repeatCount="indefinite"></animate>
  </rect>
</g><g transform="rotate(30 50 50)">
  <rect x="42.5" y="32.5" rx="6" ry="4.5" width="15" height="9" fill="#d2c2c5">
    <animate attributeName="opacity" values="1;0" keyTimes="0;1" dur="0.7246376811594202s" begin="-0.6491545893719806s" repeatCount="indefinite"></animate>
  </rect>
</g><g transform="rotate(37.5 50 50)">
  <rect x="42.5" y="32.5" rx="6" ry="4.5" width="15" height="9" fill="#d2c2c5">
    <animate attributeName="opacity" values="1;0" keyTimes="0;1" dur="0.7246376811594202s" begin="-0.6340579710144927s" repeatCount="indefinite"></animate>
  </rect>
</g><g transform="rotate(45 50 50)">
  <rect x="42.5" y="32.5" rx="6" ry="4.5" width="15" height="9" fill="#d2c2c5">
    <animate attributeName="opacity" values="1;0" keyTimes="0;1" dur="0.7246376811594202s" begin="-0.6189613526570047s" repeatCount="indefinite"></animate>
  </rect>
</g><g transform="rotate(52.5 50 50)">
  <rect x="42.5" y="32.5" rx="6" ry="4.5" width="15" height="9" fill="#d2c2c5">
    <animate attributeName="opacity" values="1;0" keyTimes="0;1" dur="0.7246376811594202s" begin="-0.6038647342995168s" repeatCount="indefinite"></animate>
  </rect>
</g><g transform="rotate(60 50 50)">
  <rect x="42.5" y="32.5" rx="6" ry="4.5" width="15" height="9" fill="#d2c2c5">
    <animate attributeName="opacity" values="1;0" keyTimes="0;1" dur="0.7246376811594202s" begin="-0.5887681159420289s" repeatCount="indefinite"></animate>
  </rect>
</g><g transform="rotate(67.5 50 50)">
  <rect x="42.5" y="32.5" rx="6" ry="4.5" width="15" height="9" fill="#d2c2c5">
    <animate attributeName="opacity" values="1;0" keyTimes="0;1" dur="0.7246376811594202s" begin="-0.573671497584541s" repeatCount="indefinite"></animate>
  </rect>
</g><g transform="rotate(75 50 50)">
  <rect x="42.5" y="32.5" rx="6" ry="4.5" width="15" height="9" fill="#d2c2c5">
    <animate attributeName="opacity" values="1;0" keyTimes="0;1" dur="0.7246376811594202s" begin="-0.5585748792270531s" repeatCount="indefinite"></animate>
  </rect>
</g><g transform="rotate(82.5 50 50)">
  <rect x="42.5" y="32.5" rx="6" ry="4.5" width="15" height="9" fill="#d2c2c5">
    <animate attributeName="opacity" values="1;0" keyTimes="0;1" dur="0.7246376811594202s" begin="-0.5434782608695652s" repeatCount="indefinite"></animate>
  </rect>
</g><g transform="rotate(90 50 50)">
  <rect x="42.5" y="32.5" rx="6" ry="4.5" width="15" height="9" fill="#d2c2c5">
    <animate attributeName="opacity" values="1;0" keyTimes="0;1" dur="0.7246376811594202s" begin="-0.5283816425120772s" repeatCount="indefinite"></animate>
  </rect>
</g><g transform="rotate(97.5 50 50)">
  <rect x="42.5" y="32.5" rx="6" ry="4.5" width="15" height="9" fill="#d2c2c5">
    <animate attributeName="opacity" values="1;0" keyTimes="0;1" dur="0.7246376811594202s" begin="-0.5132850241545893s" repeatCount="indefinite"></animate>
  </rect>
</g><g transform="rotate(105 50 50)">
  <rect x="42.5" y="32.5" rx="6" ry="4.5" width="15" height="9" fill="#d2c2c5">
    <animate attributeName="opacity" values="1;0" keyTimes="0;1" dur="0.7246376811594202s" begin="-0.4981884057971014s" repeatCount="indefinite"></animate>
  </rect>
</g><g transform="rotate(112.5 50 50)">
  <rect x="42.5" y="32.5" rx="6" ry="4.5" width="15" height="9" fill="#d2c2c5">
    <animate attributeName="opacity" values="1;0" keyTimes="0;1" dur="0.7246376811594202s" begin="-0.48309178743961345s" repeatCount="indefinite"></animate>
  </rect>
</g><g transform="rotate(120 50 50)">
  <rect x="42.5" y="32.5" rx="6" ry="4.5" width="15" height="9" fill="#d2c2c5">
    <animate attributeName="opacity" values="1;0" keyTimes="0;1" dur="0.7246376811594202s" begin="-0.4679951690821255s" repeatCount="indefinite"></animate>
  </rect>
</g><g transform="rotate(127.5 50 50)">
  <rect x="42.5" y="32.5" rx="6" ry="4.5" width="15" height="9" fill="#d2c2c5">
    <animate attributeName="opacity" values="1;0" keyTimes="0;1" dur="0.7246376811594202s" begin="-0.45289855072463764s" repeatCount="indefinite"></animate>
  </rect>
</g><g transform="rotate(135 50 50)">
  <rect x="42.5" y="32.5" rx="6" ry="4.5" width="15" height="9" fill="#d2c2c5">
    <animate attributeName="opacity" values="1;0" keyTimes="0;1" dur="0.7246376811594202s" begin="-0.4378019323671497s" repeatCount="indefinite"></animate>
  </rect>
</g><g transform="rotate(142.5 50 50)">
  <rect x="42.5" y="32.5" rx="6" ry="4.5" width="15" height="9" fill="#d2c2c5">
    <animate attributeName="opacity" values="1;0" keyTimes="0;1" dur="0.7246376811594202s" begin="-0.42270531400966177s" repeatCount="indefinite"></animate>
  </rect>
</g><g transform="rotate(150 50 50)">
  <rect x="42.5" y="32.5" rx="6" ry="4.5" width="15" height="9" fill="#d2c2c5">
    <animate attributeName="opacity" values="1;0" keyTimes="0;1" dur="0.7246376811594202s" begin="-0.40760869565217384s" repeatCount="indefinite"></animate>
  </rect>
</g><g transform="rotate(157.5 50 50)">
  <rect x="42.5" y="32.5" rx="6" ry="4.5" width="15" height="9" fill="#d2c2c5">
    <animate attributeName="opacity" values="1;0" keyTimes="0;1" dur="0.7246376811594202s" begin="-0.39251207729468596s" repeatCount="indefinite"></animate>
  </rect>
</g><g transform="rotate(165 50 50)">
  <rect x="42.5" y="32.5" rx="6" ry="4.5" width="15" height="9" fill="#d2c2c5">
    <animate attributeName="opacity" values="1;0" keyTimes="0;1" dur="0.7246376811594202s" begin="-0.377415458937198s" repeatCount="indefinite"></animate>
  </rect>
</g><g transform="rotate(172.5 50 50)">
  <rect x="42.5" y="32.5" rx="6" ry="4.5" width="15" height="9" fill="#d2c2c5">
    <animate attributeName="opacity" values="1;0" keyTimes="0;1" dur="0.7246376811594202s" begin="-0.3623188405797101s" repeatCount="indefinite"></animate>
  </rect>
</g><g transform="rotate(180 50 50)">
  <rect x="42.5" y="32.5" rx="6" ry="4.5" width="15" height="9" fill="#d2c2c5">
    <animate attributeName="opacity" values="1;0" keyTimes="0;1" dur="0.7246376811594202s" begin="-0.34722222222222215s" repeatCount="indefinite"></animate>
  </rect>
</g><g transform="rotate(187.5 50 50)">
  <rect x="42.5" y="32.5" rx="6" ry="4.5" width="15" height="9" fill="#d2c2c5">
    <animate attributeName="opacity" values="1;0" keyTimes="0;1" dur="0.7246376811594202s" begin="-0.3321256038647343s" repeatCount="indefinite"></animate>
  </rect>
</g><g transform="rotate(195 50 50)">
  <rect x="42.5" y="32.5" rx="6" ry="4.5" width="15" height="9" fill="#d2c2c5">
    <animate attributeName="opacity" values="1;0" keyTimes="0;1" dur="0.7246376811594202s" begin="-0.31702898550724634s" repeatCount="indefinite"></animate>
  </rect>
</g><g transform="rotate(202.5 50 50)">
  <rect x="42.5" y="32.5" rx="6" ry="4.5" width="15" height="9" fill="#d2c2c5">
    <animate attributeName="opacity" values="1;0" keyTimes="0;1" dur="0.7246376811594202s" begin="-0.3019323671497584s" repeatCount="indefinite"></animate>
  </rect>
</g><g transform="rotate(210 50 50)">
  <rect x="42.5" y="32.5" rx="6" ry="4.5" width="15" height="9" fill="#d2c2c5">
    <animate attributeName="opacity" values="1;0" keyTimes="0;1" dur="0.7246376811594202s" begin="-0.2868357487922705s" repeatCount="indefinite"></animate>
  </rect>
</g><g transform="rotate(217.5 50 50)">
  <rect x="42.5" y="32.5" rx="6" ry="4.5" width="15" height="9" fill="#d2c2c5">
    <animate attributeName="opacity" values="1;0" keyTimes="0;1" dur="0.7246376811594202s" begin="-0.2717391304347826s" repeatCount="indefinite"></animate>
  </rect>
</g><g transform="rotate(225 50 50)">
  <rect x="42.5" y="32.5" rx="6" ry="4.5" width="15" height="9" fill="#d2c2c5">
    <animate attributeName="opacity" values="1;0" keyTimes="0;1" dur="0.7246376811594202s" begin="-0.25664251207729466s" repeatCount="indefinite"></animate>
  </rect>
</g><g transform="rotate(232.5 50 50)">
  <rect x="42.5" y="32.5" rx="6" ry="4.5" width="15" height="9" fill="#d2c2c5">
    <animate attributeName="opacity" values="1;0" keyTimes="0;1" dur="0.7246376811594202s" begin="-0.24154589371980673s" repeatCount="indefinite"></animate>
  </rect>
</g><g transform="rotate(240 50 50)">
  <rect x="42.5" y="32.5" rx="6" ry="4.5" width="15" height="9" fill="#d2c2c5">
    <animate attributeName="opacity" values="1;0" keyTimes="0;1" dur="0.7246376811594202s" begin="-0.22644927536231882s" repeatCount="indefinite"></animate>
  </rect>
</g><g transform="rotate(247.5 50 50)">
  <rect x="42.5" y="32.5" rx="6" ry="4.5" width="15" height="9" fill="#d2c2c5">
    <animate attributeName="opacity" values="1;0" keyTimes="0;1" dur="0.7246376811594202s" begin="-0.21135265700483089s" repeatCount="indefinite"></animate>
  </rect>
</g><g transform="rotate(255 50 50)">
  <rect x="42.5" y="32.5" rx="6" ry="4.5" width="15" height="9" fill="#d2c2c5">
    <animate attributeName="opacity" values="1;0" keyTimes="0;1" dur="0.7246376811594202s" begin="-0.19625603864734298s" repeatCount="indefinite"></animate>
  </rect>
</g><g transform="rotate(262.5 50 50)">
  <rect x="42.5" y="32.5" rx="6" ry="4.5" width="15" height="9" fill="#d2c2c5">
    <animate attributeName="opacity" values="1;0" keyTimes="0;1" dur="0.7246376811594202s" begin="-0.18115942028985504s" repeatCount="indefinite"></animate>
  </rect>
</g><g transform="rotate(270 50 50)">
  <rect x="42.5" y="32.5" rx="6" ry="4.5" width="15" height="9" fill="#d2c2c5">
    <animate attributeName="opacity" values="1;0" keyTimes="0;1" dur="0.7246376811594202s" begin="-0.16606280193236714s" repeatCount="indefinite"></animate>
  </rect>
</g><g transform="rotate(277.5 50 50)">
  <rect x="42.5" y="32.5" rx="6" ry="4.5" width="15" height="9" fill="#d2c2c5">
    <animate attributeName="opacity" values="1;0" keyTimes="0;1" dur="0.7246376811594202s" begin="-0.1509661835748792s" repeatCount="indefinite"></animate>
  </rect>
</g><g transform="rotate(285 50 50)">
  <rect x="42.5" y="32.5" rx="6" ry="4.5" width="15" height="9" fill="#d2c2c5">
    <animate attributeName="opacity" values="1;0" keyTimes="0;1" dur="0.7246376811594202s" begin="-0.1358695652173913s" repeatCount="indefinite"></animate>
  </rect>
</g><g transform="rotate(292.5 50 50)">
  <rect x="42.5" y="32.5" rx="6" ry="4.5" width="15" height="9" fill="#d2c2c5">
    <animate attributeName="opacity" values="1;0" keyTimes="0;1" dur="0.7246376811594202s" begin="-0.12077294685990336s" repeatCount="indefinite"></animate>
  </rect>
</g><g transform="rotate(300 50 50)">
  <rect x="42.5" y="32.5" rx="6" ry="4.5" width="15" height="9" fill="#d2c2c5">
    <animate attributeName="opacity" values="1;0" keyTimes="0;1" dur="0.7246376811594202s" begin="-0.10567632850241544s" repeatCount="indefinite"></animate>
  </rect>
</g><g transform="rotate(307.5 50 50)">
  <rect x="42.5" y="32.5" rx="6" ry="4.5" width="15" height="9" fill="#d2c2c5">
    <animate attributeName="opacity" values="1;0" keyTimes="0;1" dur="0.7246376811594202s" begin="-0.09057971014492752s" repeatCount="indefinite"></animate>
  </rect>
</g><g transform="rotate(315 50 50)">
  <rect x="42.5" y="32.5" rx="6" ry="4.5" width="15" height="9" fill="#d2c2c5">
    <animate attributeName="opacity" values="1;0" keyTimes="0;1" dur="0.7246376811594202s" begin="-0.0754830917874396s" repeatCount="indefinite"></animate>
  </rect>
</g><g transform="rotate(322.5 50 50)">
  <rect x="42.5" y="32.5" rx="6" ry="4.5" width="15" height="9" fill="#d2c2c5">
    <animate attributeName="opacity" values="1;0" keyTimes="0;1" dur="0.7246376811594202s" begin="-0.06038647342995168s" repeatCount="indefinite"></animate>
  </rect>
</g><g transform="rotate(330 50 50)">
  <rect x="42.5" y="32.5" rx="6" ry="4.5" width="15" height="9" fill="#d2c2c5">
    <animate attributeName="opacity" values="1;0" keyTimes="0;1" dur="0.7246376811594202s" begin="-0.04528985507246376s" repeatCount="indefinite"></animate>
  </rect>
</g><g transform="rotate(337.5 50 50)">
  <rect x="42.5" y="32.5" rx="6" ry="4.5" width="15" height="9" fill="#d2c2c5">
    <animate attributeName="opacity" values="1;0" keyTimes="0;1" dur="0.7246376811594202s" begin="-0.03019323671497584s" repeatCount="indefinite"></animate>
  </rect>
</g><g transform="rotate(345 50 50)">
  <rect x="42.5" y="32.5" rx="6" ry="4.5" width="15" height="9" fill="#d2c2c5">
    <animate attributeName="opacity" values="1;0" keyTimes="0;1" dur="0.7246376811594202s" begin="-0.01509661835748792s" repeatCount="indefinite"></animate>
  </rect>
</g><g transform="rotate(352.5 50 50)">
  <rect x="42.5" y="32.5" rx="6" ry="4.5" width="15" height="9" fill="#d2c2c5">
    <animate attributeName="opacity" values="1;0" keyTimes="0;1" dur="0.7246376811594202s" begin="0s" repeatCount="indefinite"></animate>
  </rect>
</g>
<!-- [ldio] generated by https://loading.io/ --></svg>